<svg xmlns="http://www.w3.org/2000/svg" viewBox="0 0 32 32" fill="none">
  <rect width="32" height="32" rx="6" fill="#080808"/>
  <path fill="#f5c518" d="M4 10h24v14a2 2 0 0 1-2 2H6a2 2 0 0 1-2-2V10z"/>
  <path fill="#121212" d="M4 10 6.5 6h19L28 10H4z"/>
  <path stroke="#080808" stroke-width="1.2" d="M6.5 6 9 10M11 6l2.5 4M15.5 6 18 10M20 6l2.5 4M24.5 6 27 10"/>
  <rect x="7" y="14" width="18" height="2" rx="1" fill="#080808" opacity="0.35"/>
  <rect x="7" y="18" width="12" height="2" rx="1" fill="#080808" opacity="0.25"/>
</svg>
